REM DIRINDEX 1\2,1\3
REM DIRNAME folder01,folder02,folder03
TITLE ""
FILE "CD2Track26.mp3" MP3
  TRACK 01 AUDIO
    TITLE "0:"
    INDEX 01 00:00:00
  TRACK 02 AUDIO
    TITLE "2:cjc102_3555"
    INDEX 01 00:00:25
  TRACK 03 AUDIO
    TITLE "0:"
    INDEX 01 00:01:11
  TRACK 04 AUDIO
    TITLE "3:cjc102_3556"
    INDEX 01 00:01:13
  TRACK 05 AUDIO
    TITLE "0:"
    INDEX 01 00:02:51
  TRACK 06 AUDIO
    TITLE "3:cjc102_3557"
    INDEX 01 00:03:66
  TRACK 07 AUDIO
    TITLE "0:"
    INDEX 01 00:07:51
  TRACK 08 AUDIO
    TITLE "2:cjc102_3558"
    INDEX 01 00:07:54
  TRACK 09 AUDIO
    TITLE "0:"
    INDEX 01 00:08:62
  TRACK 10 AUDIO
    TITLE "3:cjc102_3559"
    INDEX 01 00:10:41
  TRACK 11 AUDIO
    TITLE "0:"
    INDEX 01 00:11:29
  TRACK 12 AUDIO
    TITLE "2:cjc102_3560"
    INDEX 01 00:11:33
  TRACK 13 AUDIO
    TITLE "0:"
    INDEX 01 00:12:44
  TRACK 14 AUDIO
    TITLE "3:cjc102_3561"
    INDEX 01 00:13:47
  TRACK 15 AUDIO
    TITLE "0:"
    INDEX 01 00:14:31
  TRACK 16 AUDIO
    TITLE "2:cjc102_3562"
    INDEX 01 00:14:56
  TRACK 17 AUDIO
    TITLE "0:"
    INDEX 01 00:15:68
  TRACK 18 AUDIO
    TITLE "3:cjc102_3563"
    INDEX 01 00:17:27
  TRACK 19 AUDIO
    TITLE "0:"
    INDEX 01 00:18:09
  TRACK 20 AUDIO
    TITLE "2:cjc102_3564"
    INDEX 01 00:18:13
  TRACK 21 AUDIO
    TITLE "0:"
    INDEX 01 00:19:22
  TRACK 22 AUDIO
    TITLE "3:cjc102_3565"
    INDEX 01 00:20:45
  TRACK 23 AUDIO
    TITLE "0:"
    INDEX 01 00:21:39
  TRACK 24 AUDIO
    TITLE "2:cjc102_3566"
    INDEX 01 00:21:58
  TRACK 25 AUDIO
    TITLE "0:"
    INDEX 01 00:22:68
  TRACK 26 AUDIO
    TITLE "3:cjc102_3567"
    INDEX 01 00:24:20
  TRACK 27 AUDIO
    TITLE "0:"
    INDEX 01 00:24:74
  TRACK 28 AUDIO
    TITLE "2:cjc102_3568"
    INDEX 01 00:25:33
  TRACK 29 AUDIO
    TITLE "0:"
    INDEX 01 00:26:46
  TRACK 30 AUDIO
    TITLE "3:cjc102_3569"
    INDEX 01 00:28:23
  TRACK 31 AUDIO
    TITLE "0:"
    INDEX 01 00:29:13
  TRACK 32 AUDIO
    TITLE "2:cjc102_3570"
    INDEX 01 00:29:19
  TRACK 33 AUDIO
    TITLE "0:"
    INDEX 01 00:30:32
  TRACK 34 AUDIO
    TITLE "3:cjc102_3571"
    INDEX 01 00:31:59
  TRACK 35 AUDIO
    TITLE "0:"
    INDEX 01 00:32:54
  TRACK 36 AUDIO
    TITLE "2:cjc102_3572"
    INDEX 01 00:33:11
  TRACK 37 AUDIO
    TITLE "0:"
    INDEX 01 00:34:30
  TRACK 38 AUDIO
    TITLE "3:cjc102_3573"
    INDEX 01 00:35:70
  TRACK 39 AUDIO
    TITLE "0:"
    INDEX 01 00:36:66
  TRACK 40 AUDIO
    TITLE "2:cjc102_3574"
    INDEX 01 00:37:08
  TRACK 41 AUDIO
    TITLE "0:"
    INDEX 01 00:38:24
  TRACK 42 AUDIO
    TITLE "3:cjc102_3575"
    INDEX 01 00:39:51
  TRACK 43 AUDIO
    TITLE "0:"
    INDEX 01 00:40:42
  TRACK 44 AUDIO
    TITLE "2:cjc102_3576"
    INDEX 01 00:40:70
  TRACK 45 AUDIO
    TITLE "0:"
    INDEX 01 00:42:00
  TRACK 46 AUDIO
    TITLE "3:cjc102_3577"
    INDEX 01 00:42:65
  TRACK 47 AUDIO
    TITLE "0:"
    INDEX 01 00:43:60
  TRACK 48 AUDIO
    TITLE "2:cjc102_3578"
    INDEX 01 00:44:32
  TRACK 49 AUDIO
    TITLE "0:"
    INDEX 01 00:45:53
  TRACK 50 AUDIO
    TITLE "3:cjc102_3579"
    INDEX 01 00:45:73
  TRACK 51 AUDIO
    TITLE "0:"
    INDEX 01 00:47:13
  TRACK 52 AUDIO
    TITLE "2:cjc102_3580"
    INDEX 01 00:48:18
  TRACK 53 AUDIO
    TITLE "0:"
    INDEX 01 00:49:41
  TRACK 54 AUDIO
    TITLE "3:cjc102_3581"
    INDEX 01 00:50:60
  TRACK 55 AUDIO
    TITLE "0:"
    INDEX 01 00:51:73
  TRACK 56 AUDIO
    TITLE "2:cjc102_3582"
    INDEX 01 00:52:12
  TRACK 57 AUDIO
    TITLE "0:"
    INDEX 01 00:53:33
  TRACK 58 AUDIO
    TITLE "3:cjc102_3583"
    INDEX 01 00:54:50
  TRACK 59 AUDIO
    TITLE "0:"
    INDEX 01 00:55:71
  TRACK 60 AUDIO
    TITLE "2:cjc102_3584"
    INDEX 01 00:56:24
  TRACK 61 AUDIO
    TITLE "0:"
    INDEX 01 00:57:39
  TRACK 62 AUDIO
    TITLE "3:cjc102_3585"
    INDEX 01 00:58:32
  TRACK 63 AUDIO
    TITLE "0:"
    INDEX 01 00:59:51
  TRACK 64 AUDIO
    TITLE "2:cjc102_3586"
    INDEX 01 01:00:21
  TRACK 65 AUDIO
    TITLE "0:"
    INDEX 01 01:01:42
  TRACK 66 AUDIO
    TITLE "3:cjc102_3587"
    INDEX 01 01:02:42
  TRACK 67 AUDIO
    TITLE "0:"
    INDEX 01 01:03:49
  TRACK 68 AUDIO
    TITLE "2:cjc102_3588"
    INDEX 01 01:04:03
  TRACK 69 AUDIO
    TITLE "0:"
    INDEX 01 01:05:22
  TRACK 70 AUDIO
    TITLE "3:cjc102_3589"
    INDEX 01 01:06:12
  TRACK 71 AUDIO
    TITLE "0:"
    INDEX 01 01:07:23
  TRACK 72 AUDIO
    TITLE "2:cjc102_3590"
    INDEX 01 01:08:15
  TRACK 73 AUDIO
    TITLE "0:"
    INDEX 01 01:09:36
  TRACK 74 AUDIO
    TITLE "3:cjc102_3591"
    INDEX 01 01:11:45
  TRACK 75 AUDIO
    TITLE "0:"
    INDEX 01 01:12:64
  TRACK 76 AUDIO
    TITLE "2:cjc102_3592"
    INDEX 01 01:13:53
  TRACK 77 AUDIO
    TITLE "0:"
    INDEX 01 01:14:68
  TRACK 78 AUDIO
    TITLE "2:cjc102_3593"
    INDEX 01 01:15:56
  TRACK 79 AUDIO
    TITLE "0:"
    INDEX 01 01:17:04
  TRACK 80 AUDIO
    TITLE "3:cjc102_3594"
    INDEX 01 01:17:33
  TRACK 81 AUDIO
    TITLE "0:"
    INDEX 01 01:18:58
  TRACK 82 AUDIO
    TITLE "2:cjc102_3595"
    INDEX 01 01:19:05
  TRACK 83 AUDIO
    TITLE "0:"
    INDEX 01 01:20:14
  TRACK 84 AUDIO
    TITLE "2:cjc102_3596"
    INDEX 01 01:21:12
  TRACK 85 AUDIO
    TITLE "0:"
    INDEX 01 01:22:27
  TRACK 86 AUDIO
    TITLE "3:cjc102_3597"
    INDEX 01 01:23:46
  TRACK 87 AUDIO
    TITLE "0:"
    INDEX 01 01:24:67
  TRACK 88 AUDIO
    TITLE "2:cjc102_3598"
    INDEX 01 01:25:27
  TRACK 89 AUDIO
    TITLE "0:"
    INDEX 01 01:26:38
  TRACK 90 AUDIO
    TITLE "2:cjc102_3599"
    INDEX 01 01:27:36
  TRACK 91 AUDIO
    TITLE "0:"
    INDEX 01 01:28:55
  TRACK 92 AUDIO
    TITLE "3:cjc102_3600"
    INDEX 01 01:29:54
  TRACK 93 AUDIO
    TITLE "0:"
    INDEX 01 01:30:66
  TRACK 94 AUDIO
    TITLE "2:cjc102_3601"
    INDEX 01 01:31:26
  TRACK 95 AUDIO
    TITLE "0:"
    INDEX 01 01:32:37
  TRACK 96 AUDIO
    TITLE "2:cjc102_3602"
    INDEX 01 01:33:31
  TRACK 97 AUDIO
    TITLE "0:"
    INDEX 01 01:34:57
  TRACK 98 AUDIO
    TITLE "3:cjc102_3603"
    INDEX 01 01:35:69
  TRACK 99 AUDIO
    TITLE "0:"
    INDEX 01 01:37:22
  TRACK 100 AUDIO
    TITLE "2:cjc102_3604"
    INDEX 01 01:37:68
  TRACK 101 AUDIO
    TITLE "0:"
    INDEX 01 01:39:06
  TRACK 102 AUDIO
    TITLE "2:cjc102_3605"
    INDEX 01 01:40:11
  TRACK 103 AUDIO
    TITLE "0:"
    INDEX 01 01:41:34
  TRACK 104 AUDIO
    TITLE "3:cjc102_3606"
    INDEX 01 01:42:31
  TRACK 105 AUDIO
    TITLE "0:"
    INDEX 01 01:43:52
  TRACK 106 AUDIO
    TITLE "2:cjc102_3607"
    INDEX 01 01:44:11
  TRACK 107 AUDIO
    TITLE "0:"
    INDEX 01 01:45:26
  TRACK 108 AUDIO
    TITLE "2:cjc102_3608"
    INDEX 01 01:46:23
  TRACK 109 AUDIO
    TITLE "0:"
    INDEX 01 01:47:54
  TRACK 110 AUDIO
    TITLE "3:cjc102_3609"
    INDEX 01 01:49:61
  TRACK 111 AUDIO
    TITLE "0:"
    INDEX 01 01:51:13
  TRACK 112 AUDIO
    TITLE "2:cjc102_3610"
    INDEX 01 01:51:30
  TRACK 113 AUDIO
    TITLE "0:"
    INDEX 01 01:54:52
  TRACK 114 AUDIO
    TITLE "3:cjc102_3611"
    INDEX 01 01:56:16
  TRACK 115 AUDIO
    TITLE "0:"
    INDEX 01 01:57:45
  TRACK 116 AUDIO
    TITLE "2:cjc102_3612"
    INDEX 01 01:58:07
  TRACK 117 AUDIO
    TITLE "0:"
    INDEX 01 02:02:28
  TRACK 118 AUDIO
    TITLE "3:cjc102_3613"
    INDEX 01 02:03:41
  TRACK 119 AUDIO
    TITLE "0:"
    INDEX 01 02:04:64
  TRACK 120 AUDIO
    TITLE "2:cjc102_3614"
    INDEX 01 02:05:03
  TRACK 121 AUDIO
    TITLE "0:"
    INDEX 01 02:09:62
